<?xml version="1.0" encoding="UTF-8"?>
<svg width="20px" height="20px" viewBox="0 0 20 20" version="1.1" xmlns="http://www.w3.org/2000/svg" xmlns:xlink="http://www.w3.org/1999/xlink">
    <!-- Generator: Sketch 59.1 (86144) - https://sketch.com -->
    <title>plus</title>
    <desc>Created with Sketch.</desc>
    <g id="plus" stroke="none" stroke-width="1" fill="none" fill-rule="evenodd">
        <path d="M20,15 L20,17 L18,17 L18,15 L20,15 Z M20,12 L20,14 L18,14 L18,12 L20,12 Z M20,9 L20,11 L18,11 L18,9 L20,9 Z" id="Combined-Shape" fill="#000000" fill-rule="nonzero"></path>
        <path d="M1,10 C1,9.44771525 1.44771525,9 2,9 L14,9 C14.5522847,9 15,9.44771525 15,10 C15,10.5522847 14.5522847,11 14,11 L2,11 C1.44771525,11 1,10.5522847 1,10 Z" id="Path" fill="#000000" fill-rule="nonzero" transform="translate(8.000000, 10.000000) rotate(-270.000000) translate(-8.000000, -10.000000) "></path>
        <path d="M1,10 C1,9.44771525 1.44771525,9 2,9 L14,9 C14.5522847,9 15,9.44771525 15,10 C15,10.5522847 14.5522847,11 14,11 L2,11 C1.44771525,11 1,10.5522847 1,10 Z" id="Path" fill="#000000" fill-rule="nonzero" transform="translate(8.000000, 10.000000) rotate(-180.000000) translate(-8.000000, -10.000000) "></path>
    </g>
</svg>