<svg viewBox="0 0 20 20" xmlns="http://www.w3.org/2000/svg"><path d="M2.001 10.485c.022-1.909.721-3.738 1.96-5.125C5.197 3.973 6.883 3.13 8.682 3l.042.783C5.805 4.645 4.598 7.26 4.45 9.99h4.17c.609 0 .552.504.552 1.151v5.27c0 .646-.495.587-1.104.587H2.553c-.609 0-.552-.525-.552-1.172v-5.342zm8.826 0c.022-1.909.721-3.738 1.96-5.125C14.023 3.973 15.71 3.13 17.508 3l.042.783c-2.92.863-4.126 3.48-4.273 6.208h4.169c.609 0 .552.504.552 1.151v5.27c0 .646-.495.587-1.104.587H11.38c-.609 0-.552-.525-.552-1.172v-5.342z"/></svg>